<svg width="21" height="17" viewBox="0 0 21 17" fill="none" xmlns="http://www.w3.org/2000/svg">
<path d="M16.5102 5.34592C15.8701 5.239 10.7545 5.239 10.2719 5.34592C9.78933 5.45284 9.54649 5.86411 9.57598 6.30818C9.61654 6.96703 9.79988 7.1236 10.2719 7.21105H14.91L14.7293 8.12579H9.25594L8.04321 4.45493L18.8682 4.66694L16.7457 10.7987H7.33569C7.33569 10.7987 4.10849 0.748426 3.74849 0.320755C3.3885 -0.106916 0.342723 -0.106919 0.121348 0.320752C-0.100026 0.748423 -0.0252819 1.50874 0.40145 1.7107C0.828181 1.91266 1.46382 1.68348 2.41844 1.92453L5.6288 11.9812C5.75096 12.4072 5.90115 12.5533 6.34516 12.6173L17.4886 12.7233C17.8676 12.6097 17.996 12.4857 18.1253 12.1933L20.9908 3.92491C21.0389 3.13622 20.9187 2.82296 20.1418 2.75886H7.19419C6.09322 2.71926 5.67966 3.03685 5.84216 3.92491C6.00467 4.81297 7.44238 9.19497 7.65573 9.62265C7.86908 10.0503 8.07617 9.99682 8.4025 10.0503H15.6568C15.9767 10.0283 16.0835 9.9434 16.2968 9.62265C16.5102 9.30189 17.257 6.30818 17.257 6.30818C17.2785 5.89545 17.1503 5.45284 16.5102 5.34592Z" fill="white"/>
<path d="M13.9499 15.2893C13.9499 16.2341 14.7141 17 15.6568 17C16.5994 17 17.3636 16.2341 17.3636 15.2893C17.3636 14.3445 16.5994 13.5786 15.6568 13.5786C14.7141 13.5786 13.9499 14.3445 13.9499 15.2893Z" fill="white"/>
<path d="M6.6956 15.2893C6.6956 16.2341 7.4598 17 8.40248 17C9.34517 17 10.1094 16.2341 10.1094 15.2893C10.1094 14.3445 9.34517 13.5786 8.40248 13.5786C7.4598 13.5786 6.6956 14.3445 6.6956 15.2893Z" fill="white"/>
</svg>
