<svg width="150" height="54" viewBox="0 0 150 54" fill="none" xmlns="http://www.w3.org/2000/svg">
<mask id="mask0_139_157" style="mask-type:alpha" maskUnits="userSpaceOnUse" x="3" y="9" width="142" height="40">
<path d="M3.95 10.5H5.55C11.5167 10.5 16.1167 12.1333 19.35 15.4C22.6167 18.6333 24.25 23.25 24.25 29.25C24.25 32.6833 23.4167 35.8333 21.75 38.7C20.0833 41.5667 17.8167 43.8333 14.95 45.5C12.1167 47.1667 8.98333 48 5.55 48H3.95V10.5ZM5.95 46.45C9.01667 46.45 11.8167 45.7 14.35 44.2C16.8833 42.6667 18.8833 40.5833 20.35 37.95C21.85 35.3167 22.6 32.4167 22.6 29.25C22.6 23.7167 21.15 19.4667 18.25 16.5C15.3833 13.5 11.2833 12 5.95 12H5.55V46.45H5.95ZM31.0496 10.5H44.4996V11.95H32.6996V32.35H42.5496V33.8H32.6996V46.55H44.4996V48H31.0496V10.5ZM67.3508 49C63.8508 49 60.6341 48.15 57.7008 46.45C54.7674 44.7167 52.4341 42.35 50.7008 39.35C49.0008 36.3167 48.1508 32.9167 48.1508 29.15C48.1508 25.5167 49.0341 22.2 50.8008 19.2C52.6008 16.2 54.9841 13.8333 57.9508 12.1C60.9508 10.3667 64.1341 9.5 67.5008 9.5C69.8341 9.5 71.6841 9.71666 73.0508 10.15C74.4174 10.55 76.0008 11.2667 77.8008 12.3V14.15C76.1008 12.9833 74.5174 12.1667 73.0508 11.7C71.6174 11.2 69.8174 10.95 67.6508 10.95C64.3508 10.95 61.3341 11.8 58.6008 13.5C55.9008 15.1667 53.7508 17.4167 52.1508 20.25C50.5841 23.05 49.8008 26.0667 49.8008 29.3C49.8008 32.5667 50.6008 35.6 52.2008 38.4C53.8008 41.2 55.9174 43.4333 58.5508 45.1C61.2174 46.7333 64.0841 47.55 67.1508 47.55C69.3508 47.55 71.2674 47.3 72.9008 46.8C74.5341 46.2667 76.1674 45.45 77.8008 44.35V46.2C76.2008 47.1667 74.5508 47.8667 72.8508 48.3C71.1841 48.7667 69.3508 49 67.3508 49ZM102.807 49C99.307 49 96.057 48.0833 93.057 46.25C90.057 44.4167 87.6737 41.9833 85.907 38.95C84.1737 35.8833 83.307 32.6 83.307 29.1C83.307 25.6333 84.1904 22.4 85.957 19.4C87.7237 16.3667 90.107 13.9667 93.107 12.2C96.107 10.4 99.357 9.5 102.857 9.5C106.39 9.5 109.64 10.3833 112.607 12.15C115.574 13.9167 117.924 16.3167 119.657 19.35C121.424 22.35 122.307 25.6 122.307 29.1C122.307 32.7 121.424 36.0333 119.657 39.1C117.924 42.1333 115.557 44.55 112.557 46.35C109.59 48.1167 106.34 49 102.807 49ZM102.807 47.55C106.007 47.55 108.974 46.7333 111.707 45.1C114.44 43.4333 116.607 41.2 118.207 38.4C119.84 35.5667 120.657 32.5 120.657 29.2C120.657 25.9333 119.857 22.9 118.257 20.1C116.657 17.3 114.49 15.0833 111.757 13.45C109.024 11.7833 106.057 10.95 102.857 10.95C99.6237 10.95 96.6404 11.7833 93.907 13.45C91.1737 15.0833 88.9904 17.3 87.357 20.1C85.757 22.9 84.957 25.9333 84.957 29.2C84.957 32.5 85.757 35.5667 87.357 38.4C88.9904 41.2 91.1737 43.4333 93.907 45.1C96.6404 46.7333 99.607 47.55 102.807 47.55ZM129.096 10.5H131.246C135.146 10.5 138.146 11.5333 140.246 13.6C142.38 15.6667 143.446 18.6167 143.446 22.45C143.446 24.65 142.913 26.6667 141.846 28.5C140.813 30.3333 139.396 31.7833 137.596 32.85C135.796 33.8833 133.813 34.4 131.646 34.4H131.296L144.196 48H142.046L130.696 36.1V48H129.096V10.5ZM131.596 32.95C133.496 32.95 135.23 32.4833 136.796 31.55C138.363 30.6167 139.596 29.3667 140.496 27.8C141.396 26.2 141.846 24.4333 141.846 22.5C141.846 19.1333 140.93 16.5333 139.096 14.7C137.296 12.8667 134.713 11.95 131.346 11.95H130.696V32.95H131.596Z" fill="white"/>
<path d="M102 10V32H84.5" stroke="black" stroke-width="3"/>
</mask>
<g mask="url(#mask0_139_157)">
<path d="M102 32V9.5H83V32H102Z" fill="#AE0C0C"/>
</g>
<mask id="mask1_139_157" style="mask-type:alpha" maskUnits="userSpaceOnUse" x="5" y="9" width="142" height="45">
<path d="M147 9.5H103V33H82V10H5V54H147V9.5Z" fill="#C4C4C4"/>
</mask>
<g mask="url(#mask1_139_157)">
<path d="M4.95 11.5H6.55C12.5167 11.5 17.1167 13.1333 20.35 16.4C23.6167 19.6333 25.25 24.25 25.25 30.25C25.25 33.6833 24.4167 36.8333 22.75 39.7C21.0833 42.5667 18.8167 44.8333 15.95 46.5C13.1167 48.1667 9.98333 49 6.55 49H4.95V11.5ZM6.95 47.45C10.0167 47.45 12.8167 46.7 15.35 45.2C17.8833 43.6667 19.8833 41.5833 21.35 38.95C22.85 36.3167 23.6 33.4167 23.6 30.25C23.6 24.7167 22.15 20.4667 19.25 17.5C16.3833 14.5 12.2833 13 6.95 13H6.55V47.45H6.95ZM32.0496 11.5H45.4996V12.95H33.6996V33.35H43.5496V34.8H33.6996V47.55H45.4996V49H32.0496V11.5ZM68.3508 50C64.8508 50 61.6341 49.15 58.7008 47.45C55.7674 45.7167 53.4341 43.35 51.7008 40.35C50.0008 37.3167 49.1508 33.9167 49.1508 30.15C49.1508 26.5167 50.0341 23.2 51.8008 20.2C53.6008 17.2 55.9841 14.8333 58.9508 13.1C61.9508 11.3667 65.1341 10.5 68.5008 10.5C70.8341 10.5 72.6841 10.7167 74.0508 11.15C75.4174 11.55 77.0008 12.2667 78.8008 13.3V15.15C77.1008 13.9833 75.5174 13.1667 74.0508 12.7C72.6174 12.2 70.8174 11.95 68.6508 11.95C65.3508 11.95 62.3341 12.8 59.6008 14.5C56.9008 16.1667 54.7508 18.4167 53.1508 21.25C51.5841 24.05 50.8008 27.0667 50.8008 30.3C50.8008 33.5667 51.6008 36.6 53.2008 39.4C54.8008 42.2 56.9174 44.4333 59.5508 46.1C62.2174 47.7333 65.0841 48.55 68.1508 48.55C70.3508 48.55 72.2674 48.3 73.9008 47.8C75.5341 47.2667 77.1674 46.45 78.8008 45.35V47.2C77.2008 48.1667 75.5508 48.8667 73.8508 49.3C72.1841 49.7667 70.3508 50 68.3508 50ZM103.807 50C100.307 50 97.057 49.0833 94.057 47.25C91.057 45.4167 88.6737 42.9833 86.907 39.95C85.1737 36.8833 84.307 33.6 84.307 30.1C84.307 26.6333 85.1904 23.4 86.957 20.4C88.7237 17.3667 91.107 14.9667 94.107 13.2C97.107 11.4 100.357 10.5 103.857 10.5C107.39 10.5 110.64 11.3833 113.607 13.15C116.574 14.9167 118.924 17.3167 120.657 20.35C122.424 23.35 123.307 26.6 123.307 30.1C123.307 33.7 122.424 37.0333 120.657 40.1C118.924 43.1333 116.557 45.55 113.557 47.35C110.59 49.1167 107.34 50 103.807 50ZM103.807 48.55C107.007 48.55 109.974 47.7333 112.707 46.1C115.44 44.4333 117.607 42.2 119.207 39.4C120.84 36.5667 121.657 33.5 121.657 30.2C121.657 26.9333 120.857 23.9 119.257 21.1C117.657 18.3 115.49 16.0833 112.757 14.45C110.024 12.7833 107.057 11.95 103.857 11.95C100.624 11.95 97.6404 12.7833 94.907 14.45C92.1737 16.0833 89.9904 18.3 88.357 21.1C86.757 23.9 85.957 26.9333 85.957 30.2C85.957 33.5 86.757 36.5667 88.357 39.4C89.9904 42.2 92.1737 44.4333 94.907 46.1C97.6404 47.7333 100.607 48.55 103.807 48.55ZM130.096 11.5H132.246C136.146 11.5 139.146 12.5333 141.246 14.6C143.38 16.6667 144.446 19.6167 144.446 23.45C144.446 25.65 143.913 27.6667 142.846 29.5C141.813 31.3333 140.396 32.7833 138.596 33.85C136.796 34.8833 134.813 35.4 132.646 35.4H132.296L145.196 49H143.046L131.696 37.1V49H130.096V11.5ZM132.596 33.95C134.496 33.95 136.23 33.4833 137.796 32.55C139.363 31.6167 140.596 30.3667 141.496 28.8C142.396 27.2 142.846 25.4333 142.846 23.5C142.846 20.1333 141.93 17.5333 140.096 15.7C138.296 13.8667 135.713 12.95 132.346 12.95H131.696V33.95H132.596Z" fill="white"/>
<line x1="6" y1="34" x2="105" y2="34" stroke="white" stroke-width="2"/>
<line x1="104" y1="33" x2="104" y2="11" stroke="white" stroke-width="2"/>
<line x1="32" y1="53.5" x2="147" y2="53.5" stroke="#AE0C0C"/>
</g>
</svg>
