<svg width="46" height="46" viewBox="0 0 46 46" fill="none" xmlns="http://www.w3.org/2000/svg">
<g clip-path="url(#clip0_103_158)">
<path d="M35.4949 30.6741L32.6125 28.7524L30.0502 27.0445C29.5557 26.7155 28.8911 26.8233 28.5261 27.2919L26.9405 29.3302C26.6 29.7725 25.9873 29.8996 25.4989 29.6292C24.423 29.0308 23.1508 28.4673 20.3438 25.6567C17.5367 22.846 16.9697 21.5774 16.3712 20.5016C16.1008 20.0132 16.2279 19.4005 16.6702 19.0599L18.7085 17.4744C19.177 17.1094 19.2849 16.4448 18.9559 15.9503L17.3005 13.4669L15.3263 10.5055C14.9903 10.0015 14.3176 9.85017 13.7981 10.1617L11.5213 11.5276C10.906 11.8901 10.4537 12.4755 10.2581 13.1624C9.6355 15.4325 9.50997 20.4401 17.5353 28.4655C25.5607 36.4909 30.5679 36.3649 32.8379 35.7423C33.5249 35.5467 34.1103 35.0944 34.4728 34.479L35.8387 32.2023C36.1503 31.6827 35.9989 31.0102 35.4949 30.6741Z" fill="white"/>
<path d="M24.7928 14.0344C28.9996 14.039 32.4088 17.4481 32.4134 21.655C32.4134 21.9025 32.6141 22.1032 32.8617 22.1032C33.1093 22.1032 33.31 21.9026 33.31 21.655C33.3048 16.9532 29.4946 13.143 24.7929 13.1378C24.5453 13.1378 24.3446 13.3385 24.3446 13.5861C24.3446 13.8336 24.5452 14.0344 24.7928 14.0344Z" fill="white"/>
<path d="M24.7929 16.7239C27.5149 16.7271 29.7207 18.933 29.7239 21.6549C29.7239 21.9025 29.9245 22.1032 30.1721 22.1032C30.4197 22.1032 30.6204 21.9025 30.6204 21.6549C30.6167 18.438 28.0099 15.8311 24.7929 15.8274C24.5453 15.8274 24.3446 16.028 24.3446 16.2757C24.3446 16.5233 24.5453 16.7239 24.7929 16.7239Z" fill="white"/>
<path d="M24.7928 19.4136C26.0301 19.4151 27.0327 20.4177 27.0342 21.655C27.0342 21.9025 27.2349 22.1033 27.4825 22.1033C27.73 22.1033 27.9308 21.9026 27.9308 21.655C27.9288 19.9228 26.5251 18.5191 24.7929 18.5171C24.5453 18.5171 24.3446 18.7178 24.3446 18.9654C24.3446 19.2129 24.5452 19.4136 24.7928 19.4136Z" fill="white"/>
</g>
<circle cx="23" cy="23" r="22.5" stroke="#AE0C0C"/>
<defs>
<clipPath id="clip0_103_158">
<rect width="26" height="26" fill="white" transform="translate(10 10)"/>
</clipPath>
</defs>
</svg>
